<svg width="22" height="28" viewBox="0 0 22 28" fill="none" xmlns="http://www.w3.org/2000/svg">
<path d="M7.03175 23.5196H2.34392V2.61329H10.5476V9.1465H16.4074V13.1971L18.7513 10.5838V7.83986L11.7196 0H2.34392C1.05476 0 0 1.17598 0 2.61329V23.5196C0 24.9569 1.05476 26.1329 2.34392 26.1329H7.03175V23.5196ZM18.9857 14.3731C19.1029 14.3731 19.3373 14.5037 19.4545 14.6344L20.9781 16.333C21.2124 16.5944 21.2124 17.117 20.9781 17.3784L19.8061 18.685L17.345 15.941L18.5169 14.6344C18.6341 14.5037 18.7513 14.3731 18.9857 14.3731ZM18.9857 19.469L11.8368 27.4395H9.37567V24.6956L16.5246 16.725L18.9857 19.469Z" fill="white"/>
</svg>
