<svg width="24" height="24" viewBox="0 0 24 24" fill="none" xmlns="http://www.w3.org/2000/svg">
<path fill-rule="evenodd" clip-rule="evenodd" d="M7.65418 5.43288C7.87744 3.20023 9.75617 1.5 12 1.5C14.2437 1.5 16.1225 3.20023 16.3457 5.43288L16.4975 6.95025L15.5024 7.04975L15.3507 5.53238C15.1786 3.81093 13.73 2.5 12 2.5C10.2699 2.5 8.82136 3.81093 8.64922 5.53238L8.49748 7.04975L7.50244 6.95025L7.65418 5.43288Z" fill="#606060"/>
<path fill-rule="evenodd" clip-rule="evenodd" d="M18.0606 7H5.93949L5.06449 21H18.9356L18.0606 7ZM5.93949 6C5.41143 6 4.97438 6.41059 4.94144 6.93762L4.06644 20.9376C4.03046 21.5133 4.48767 22 5.06449 22H18.9356C19.5124 22 19.9696 21.5133 19.9336 20.9376L19.0586 6.93762C19.0257 6.41059 18.5887 6 18.0606 6H5.93949Z" fill="#606060"/>
</svg>
