<svg width="24" height="24" viewBox="0 0 24 24" fill="none" xmlns="http://www.w3.org/2000/svg">
<path fill-rule="evenodd" clip-rule="evenodd" d="M11.3325 1.89767C11.3324 1.89776 11.3327 1.89758 11.3325 1.89767L3.33366 5.89712L3.33255 5.89767C2.82288 6.15093 2.50045 6.6708 2.50005 7.23991V16.7634C2.49608 17.3333 2.81541 17.8562 3.32416 18.1129C3.32445 18.1131 3.32387 18.1128 3.32416 18.1129L11.3237 22.1127C11.7462 22.3241 12.2438 22.3242 12.6663 22.1128L20.6664 18.1127L20.6675 18.1121C21.1773 17.8588 21.4997 17.3388 21.5 16.7696V7.24017C21.4997 6.67096 21.1773 6.15097 20.6675 5.89767L20.6664 5.89712L12.6675 1.89767C12.6674 1.89758 12.6677 1.89777 12.6675 1.89767C12.2474 1.68911 11.7527 1.6891 11.3325 1.89767ZM10.8875 1.00214C11.5883 0.653909 12.4118 0.653909 13.1125 1.00214L13.1137 1.00269L21.1125 5.00214C21.1127 5.00222 21.1124 5.00206 21.1125 5.00214C21.9618 5.42439 22.4995 6.29114 22.5 7.23964V16.7699C22.4995 17.7183 21.9624 18.5851 21.1132 19.0073C21.113 19.0075 21.1134 19.0072 21.1132 19.0073L13.1138 23.007C13.1138 23.0071 13.1138 23.007 13.1138 23.007C12.4097 23.3593 11.5806 23.3594 10.8764 23.0071C10.8764 23.0071 10.8765 23.0071 10.8764 23.0071L2.87644 19.0071L2.87506 19.0064C2.02685 18.579 1.49413 17.7079 1.50005 16.7583V7.23991C1.50055 6.29145 2.03772 5.42471 2.88695 5.00244C2.88715 5.00234 2.88675 5.00254 2.88695 5.00244L10.8864 1.00269L10.8875 1.00214Z" fill="#414141"/>
<path fill-rule="evenodd" clip-rule="evenodd" d="M1.87272 5.93641C1.99621 5.68943 2.29655 5.58931 2.54354 5.71281L11.9999 10.441L21.4563 5.71281C21.7033 5.58931 22.0037 5.68943 22.1271 5.93641C22.2506 6.1834 22.1505 6.48374 21.9035 6.60724L12.2235 11.4472C12.0828 11.5176 11.9171 11.5176 11.7763 11.4472L2.09633 6.60724C1.84934 6.48374 1.74923 6.1834 1.87272 5.93641Z" fill="#414141"/>
<path fill-rule="evenodd" clip-rule="evenodd" d="M12 10.5C12.2761 10.5 12.5 10.7239 12.5 11V22.76C12.5 23.0361 12.2761 23.26 12 23.26C11.7239 23.26 11.5 23.0361 11.5 22.76V11C11.5 10.7239 11.7239 10.5 12 10.5Z" fill="#414141"/>
</svg>
