<svg width="33" height="33" viewBox="0 0 33 33" fill="none" xmlns="http://www.w3.org/2000/svg">
<path fill-rule="evenodd" clip-rule="evenodd" d="M3.83325 8.50008C3.83325 6.65913 5.32564 5.16675 7.16659 5.16675H25.8333C27.6742 5.16675 29.1666 6.65913 29.1666 8.50008V27.1667C29.1666 29.0077 27.6742 30.5001 25.8333 30.5001H7.16659C5.32564 30.5001 3.83325 29.0077 3.83325 27.1667V8.50008ZM7.16659 6.50008C6.06202 6.50008 5.16659 7.39551 5.16659 8.50008V27.1667C5.16659 28.2713 6.06202 29.1667 7.16659 29.1667H25.8333C26.9378 29.1667 27.8333 28.2713 27.8333 27.1667V8.50008C27.8333 7.39551 26.9378 6.50008 25.8333 6.50008H7.16659Z" fill="#606060"/>
<path fill-rule="evenodd" clip-rule="evenodd" d="M21.8334 2.5C22.2016 2.5 22.5001 2.79848 22.5001 3.16667V8.5C22.5001 8.86819 22.2016 9.16667 21.8334 9.16667C21.4652 9.16667 21.1667 8.86819 21.1667 8.5V3.16667C21.1667 2.79848 21.4652 2.5 21.8334 2.5Z" fill="#606060"/>
<path fill-rule="evenodd" clip-rule="evenodd" d="M11.1667 2.5C11.5349 2.5 11.8333 2.79848 11.8333 3.16667V8.5C11.8333 8.86819 11.5349 9.16667 11.1667 9.16667C10.7985 9.16667 10.5 8.86819 10.5 8.5V3.16667C10.5 2.79848 10.7985 2.5 11.1667 2.5Z" fill="#606060"/>
<path fill-rule="evenodd" clip-rule="evenodd" d="M3.83325 13.8334C3.83325 13.4652 4.13173 13.1667 4.49992 13.1667H28.4999C28.8681 13.1667 29.1666 13.4652 29.1666 13.8334C29.1666 14.2016 28.8681 14.5001 28.4999 14.5001H4.49992C4.13173 14.5001 3.83325 14.2016 3.83325 13.8334Z" fill="#606060"/>
</svg>
