<svg width="25" height="24" viewBox="0 0 25 24" fill="none" xmlns="http://www.w3.org/2000/svg">
<path fill-rule="evenodd" clip-rule="evenodd" d="M2 7C2 6.17157 2.67157 5.5 3.5 5.5H16.882C17.4501 5.5 17.9695 5.821 18.2236 6.32918L19.8284 9.53887C19.8674 9.61669 19.9259 9.68302 19.9983 9.73128L22.3321 11.2871C22.7493 11.5653 23 12.0337 23 12.5352V16C23 16.8284 22.3284 17.5 21.5 17.5H19.5V16.5H21.5C21.7761 16.5 22 16.2761 22 16V12.5352C22 12.368 21.9164 12.2119 21.7773 12.1192L19.4436 10.5633C19.2264 10.4185 19.0508 10.2196 18.934 9.98608L17.3292 6.77639C17.2445 6.607 17.0714 6.5 16.882 6.5H3.5C3.22386 6.5 3 6.72386 3 7V16C3 16.2761 3.22386 16.5 3.5 16.5H5V17.5H3.5C2.67157 17.5 2 16.8284 2 16V7ZM10 16.5H15V17.5H10V16.5Z" fill="#606060"/>
<path fill-rule="evenodd" clip-rule="evenodd" d="M7.5 19C8.60457 19 9.5 18.1046 9.5 17C9.5 15.8954 8.60457 15 7.5 15C6.39543 15 5.5 15.8954 5.5 17C5.5 18.1046 6.39543 19 7.5 19ZM7.5 20C9.15685 20 10.5 18.6569 10.5 17C10.5 15.3431 9.15685 14 7.5 14C5.84315 14 4.5 15.3431 4.5 17C4.5 18.6569 5.84315 20 7.5 20Z" fill="#606060"/>
<path fill-rule="evenodd" clip-rule="evenodd" d="M17.5 19C18.6046 19 19.5 18.1046 19.5 17C19.5 15.8954 18.6046 15 17.5 15C16.3954 15 15.5 15.8954 15.5 17C15.5 18.1046 16.3954 19 17.5 19ZM17.5 20C19.1569 20 20.5 18.6569 20.5 17C20.5 15.3431 19.1569 14 17.5 14C15.8431 14 14.5 15.3431 14.5 17C14.5 18.6569 15.8431 20 17.5 20Z" fill="#606060"/>
</svg>
