<svg width="19" height="21" viewBox="0 0 19 21" fill="none" xmlns="http://www.w3.org/2000/svg">
<path fill-rule="evenodd" clip-rule="evenodd" d="M9.19303 0.105324C9.37358 -0.035108 9.62642 -0.035108 9.80697 0.105324L18.807 7.10532C18.9288 7.20005 19 7.3457 19 7.5V18.5C19 19.8807 17.8807 21 16.5 21H2.5C1.11929 21 0 19.8807 0 18.5V7.5C0 7.3457 0.0712364 7.20005 0.19303 7.10532L9.19303 0.105324ZM1 7.74454V18.5C1 19.3284 1.67157 20 2.5 20H16.5C17.3284 20 18 19.3284 18 18.5V7.74454L9.5 1.13343L1 7.74454Z" fill="#414141"/>
</svg>
