<svg width="19" height="19" viewBox="0 0 19 19" fill="none" xmlns="http://www.w3.org/2000/svg">
<path fill-rule="evenodd" clip-rule="evenodd" d="M2.5 1C1.67157 1 1 1.67157 1 2.5V17.2929L4.14645 14.1464C4.24021 14.0527 4.36739 14 4.5 14H16.5C17.3284 14 18 13.3284 18 12.5V2.5C18 1.67157 17.3284 1 16.5 1H2.5ZM0 2.5C0 1.11929 1.11929 0 2.5 0H16.5C17.8807 0 19 1.11929 19 2.5V12.5C19 13.8807 17.8807 15 16.5 15H4.70711L0.853553 18.8536C0.710554 18.9966 0.495495 19.0393 0.308658 18.9619C0.121821 18.8846 0 18.7022 0 18.5V2.5Z" fill="#606060"/>
</svg>
