<svg width="29" height="25" viewBox="0 0 29 25" fill="none" xmlns="http://www.w3.org/2000/svg">
<path d="M19.0974 24.7627C18.7817 24.7096 18.4764 24.6338 18.1868 24.5364C12.6504 22.7338 8.03081 19.8963 4.85971 16.3506C1.78347 12.814 0.321074 8.71887 0.649447 4.56066C0.698995 4.04385 0.944514 3.54013 1.36238 3.09796C1.78025 2.65579 2.3564 2.29006 3.03541 2.03594L7.79839 0.199563C8.04077 0.107961 8.30745 0.0512815 8.58102 0.0332229C8.85459 0.0151644 9.1289 0.036133 9.38605 0.0947603C9.65108 0.159476 9.89003 0.263052 10.0861 0.398206C10.2822 0.533359 10.4306 0.696807 10.5209 0.877056L13.2877 6.38032C13.3889 6.59284 13.3853 6.82385 13.2774 7.03935C13.1695 7.25486 12.9629 7.44348 12.6881 7.57746L9.54681 9.1031C9.90802 10.6731 10.7156 12.172 11.9257 13.5182C13.1091 14.9015 14.6821 16.1104 16.5594 17.0794L20.126 15.9861C20.4252 15.8949 20.7557 15.8665 21.0734 15.9046C21.3911 15.9428 21.681 16.0457 21.9045 16.1996L27.7222 20.4967C27.9252 20.636 28.0774 20.8055 28.1673 20.9925C28.2572 21.1795 28.2826 21.3791 28.2415 21.5765C28.2004 21.7738 28.0939 21.9638 27.9301 22.1321C27.7662 22.3004 27.5491 22.4426 27.2951 22.5483L22.6235 24.4066C22.0922 24.6192 21.5071 24.7602 20.902 24.8213C20.2968 24.8824 19.6835 24.8625 19.0974 24.7627V24.7627ZM8.71863 1.33523L3.95565 3.1716C3.57416 3.31335 3.2508 3.51853 3.01737 3.76694C2.78394 4.01536 2.64848 4.29847 2.62431 4.58843C2.30524 8.48853 3.66488 12.3317 6.53891 15.6536C9.52343 18.9896 13.8711 21.6589 19.0812 23.3541C19.4753 23.4831 19.9137 23.5431 20.3573 23.5286C20.8009 23.5142 21.2358 23.4257 21.6229 23.2713L26.2945 21.4129L20.6766 17.2651L16.8444 18.4439C16.6979 18.4886 16.5385 18.5088 16.3801 18.5028C16.2218 18.4967 16.0692 18.4645 15.9358 18.409C13.5975 17.3232 11.6603 15.8944 10.2626 14.2247C8.77111 12.61 7.85011 10.7773 7.56836 8.86316C7.56947 8.7503 7.61362 8.63861 7.69656 8.53884C7.77949 8.43906 7.89843 8.35456 8.04192 8.29346L11.4218 6.65047L8.71863 1.33523Z" fill="#5661CB"/>
</svg>
