<svg width="25" height="25" viewBox="0 0 25 25" fill="none" xmlns="http://www.w3.org/2000/svg">
<g clip-path="url(#clip0_617_25565)">
<path d="M12.5 0C5.59639 0 0 5.59639 0 12.5C0 19.4036 5.59639 25 12.5 25C19.4036 25 25 19.4036 25 12.5C25 5.59639 19.4036 0 12.5 0Z" fill="#40B3E0"/>
<path d="M18.5823 7.19056L16.3496 18.4473C16.3496 18.4473 16.0374 19.228 15.1787 18.8533L10.0266 14.9033L8.15312 13.9978L4.99941 12.9361C4.99941 12.9361 4.51542 12.7644 4.46855 12.3897C4.42167 12.015 5.01503 11.812 5.01503 11.812L17.5518 6.89408C17.5518 6.89408 18.5822 6.44135 18.5822 7.19076" fill="white"/>
<path d="M9.63066 18.3205C9.63066 18.3205 9.48027 18.3064 9.29277 17.7131C9.10556 17.1198 8.15312 13.9974 8.15312 13.9974L15.7252 9.18877C15.7252 9.18877 16.1624 8.92334 16.1468 9.18877C16.1468 9.18877 16.2248 9.23564 15.9905 9.4542C15.7564 9.67285 10.0423 14.8093 10.0423 14.8093" fill="#D2E5F1"/>
<path d="M12.002 16.4174L9.96425 18.2754C9.96425 18.2754 9.80488 18.3963 9.63066 18.3206L10.0209 14.8694" fill="#B5CFE4"/>
</g>
<defs>
<clipPath id="clip0_617_25565">
<rect width="25" height="25" fill="white"/>
</clipPath>
</defs>
</svg>
