<svg width="16" height="16" viewBox="0 0 16 16" fill="none" xmlns="http://www.w3.org/2000/svg">
<path d="M7.10326 1.81698C7.47008 1.07374 8.52992 1.07374 8.89674 1.81699L10.1185 4.29249C10.2641 4.58763 10.5457 4.7922 10.8714 4.83953L13.6033 5.2365C14.4235 5.35568 14.751 6.36365 14.1575 6.94219L12.1807 8.8691C11.945 9.09884 11.8375 9.42984 11.8931 9.75423L12.3598 12.4751C12.4999 13.292 11.6424 13.9149 10.9088 13.5293L8.46534 12.2446C8.17402 12.0915 7.82598 12.0915 7.53466 12.2446L5.09119 13.5293C4.35756 13.9149 3.50013 13.292 3.64024 12.4751L4.1069 9.75423C4.16254 9.42984 4.05499 9.09884 3.81931 8.8691L1.8425 6.94219C1.24898 6.36365 1.57649 5.35568 2.39671 5.2365L5.12859 4.83953C5.4543 4.7922 5.73587 4.58763 5.88153 4.29249L7.10326 1.81698Z" fill="#BFBFBF"/>
<path d="M7.99989 1.25952V12.1297C7.84005 12.1297 7.68021 12.168 7.53455 12.2446L5.09108 13.5292C4.35745 13.9149 3.50002 13.292 3.64013 12.475L4.10679 9.7542C4.16243 9.42981 4.05488 9.09881 3.8192 8.86907L1.84239 6.94216C1.24887 6.36362 1.57638 5.35565 2.3966 5.23647L5.12848 4.8395C5.45419 4.79217 5.73576 4.5876 5.88142 4.29246L7.10316 1.81696C7.28656 1.44533 7.64323 1.25952 7.99989 1.25952Z" fill="#FF6633"/>
</svg>
