<svg width="25" height="24" viewBox="0 0 25 24" fill="none" xmlns="http://www.w3.org/2000/svg">
<path fill-rule="evenodd" clip-rule="evenodd" d="M11.8325 1.89792C11.8323 1.89801 11.8327 1.89782 11.8325 1.89792L3.83359 5.89736L3.83249 5.89792C3.32282 6.15117 3.00039 6.67105 2.99999 7.24015V16.7636C2.99602 17.3335 3.31535 17.8564 3.8241 18.1132C3.82439 18.1133 3.82381 18.113 3.8241 18.1132L11.8236 22.1129C12.2461 22.3244 12.7437 22.3244 13.1662 22.113L21.1664 18.1129L21.1675 18.1124C21.6772 17.8591 21.9997 17.3391 22 16.7699V7.24042C21.9997 6.67121 21.6772 6.15121 21.1675 5.89792L21.1664 5.89736L13.1675 1.89792C13.1673 1.89782 13.1677 1.89801 13.1675 1.89792C12.7473 1.68935 12.2527 1.68934 11.8325 1.89792ZM11.3875 1.00238C12.0883 0.654153 12.9117 0.654153 13.6125 1.00238L13.6136 1.00293L21.6125 5.00238C21.6126 5.00247 21.6123 5.0023 21.6125 5.00238C22.4618 5.42464 22.9995 6.29138 23 7.23988V16.7701C22.9995 17.7186 22.4623 18.5853 21.6131 19.0076C21.6129 19.0077 21.6134 19.0075 21.6131 19.0076L13.6137 23.0073C13.6137 23.0073 13.6138 23.0073 13.6137 23.0073C12.9096 23.3596 12.0805 23.3597 11.3764 23.0074C11.3763 23.0073 11.3764 23.0074 11.3764 23.0074L3.37638 19.0074L3.375 19.0067C2.52679 18.5793 1.99407 17.7082 1.99999 16.7585V7.24015C2.00049 6.29169 2.53766 5.42496 3.38689 5.00268C3.38709 5.00258 3.38669 5.00278 3.38689 5.00268L11.3864 1.00294L11.3875 1.00238Z" fill="#414141"/>
<path fill-rule="evenodd" clip-rule="evenodd" d="M2.37278 5.93617C2.49628 5.68918 2.79661 5.58907 3.0436 5.71256L12.5 10.4408L21.9564 5.71256C22.2034 5.58907 22.5037 5.68918 22.6272 5.93617C22.7507 6.18316 22.6506 6.4835 22.4036 6.60699L12.7236 11.447C12.5828 11.5174 12.4172 11.5174 12.2764 11.447L2.59639 6.60699C2.3494 6.4835 2.24929 6.18316 2.37278 5.93617Z" fill="#414141"/>
<path fill-rule="evenodd" clip-rule="evenodd" d="M12.5 10.5C12.7761 10.5 13 10.7239 13 11V22.76C13 23.0361 12.7761 23.26 12.5 23.26C12.2239 23.26 12 23.0361 12 22.76V11C12 10.7239 12.2239 10.5 12.5 10.5Z" fill="#414141"/>
<path fill-rule="evenodd" clip-rule="evenodd" d="M7.05277 3.2765C7.17627 3.02951 7.4766 2.9294 7.72359 3.0529L17.7236 8.0529C17.9706 8.17639 18.0707 8.47673 17.9472 8.72372C17.8237 8.97071 17.5234 9.07082 17.2764 8.94732L7.27638 3.94732C7.02939 3.82383 6.92928 3.52349 7.05277 3.2765Z" fill="#414141"/>
</svg>
