<svg width="23" height="20" viewBox="0 0 23 20" fill="none" xmlns="http://www.w3.org/2000/svg">
<path fill-rule="evenodd" clip-rule="evenodd" d="M11.9546 2.25632C13.0799 1.13054 14.6064 0.498047 16.1982 0.498047C17.7899 0.498047 19.3164 1.13051 20.4416 2.25624C21.5674 3.38152 22.2 4.90816 22.2 6.49987C22.2 8.09162 21.5675 9.61813 20.4417 10.7434C20.4417 10.7435 20.4417 10.7434 20.4417 10.7434L11.6017 19.5834C11.4065 19.7787 11.0899 19.7787 10.8946 19.5834L2.05461 10.7434C-0.289037 8.39978 -0.289037 4.59997 2.05461 2.25632C4.39826 -0.0873307 8.19807 -0.0873308 10.5417 2.25632L11.2482 2.96277L11.9546 2.25632C11.9546 2.25629 11.9546 2.25635 11.9546 2.25632ZM16.1982 1.49805C14.8717 1.49805 13.5996 2.02515 12.6618 2.96334L11.6017 4.02343C11.508 4.11719 11.3808 4.16987 11.2482 4.16987C11.1156 4.16987 10.9884 4.11719 10.8946 4.02343L9.83461 2.96343C7.88149 1.0103 4.71484 1.0103 2.76172 2.96343C0.808594 4.91655 0.808594 8.08319 2.76172 10.0363L11.2482 18.5228L19.7346 10.0363C20.6728 9.09857 21.2 7.82636 21.2 6.49987C21.2 5.17338 20.6729 3.90126 19.7347 2.96351C18.7969 2.02532 17.5247 1.49805 16.1982 1.49805Z" fill="#414141"/>
</svg>
