<svg width="24" height="24" viewBox="0 0 24 24" fill="none" xmlns="http://www.w3.org/2000/svg">
<path fill-rule="evenodd" clip-rule="evenodd" d="M11.3325 1.89776C11.3323 1.89785 11.3327 1.89767 11.3325 1.89776L3.33361 5.89721L3.3325 5.89776C2.82283 6.15102 2.5004 6.67089 2.5 7.24V16.7635C2.49603 17.3334 2.81536 17.8563 3.32411 18.113C3.3244 18.1132 3.32382 18.1129 3.32411 18.113L11.3236 22.1128C11.7461 22.3242 12.2437 22.3243 12.6662 22.1129L20.6664 18.1128L20.6675 18.1122C21.1772 17.8589 21.4997 17.3389 21.5 16.7697V7.24026C21.4997 6.67105 21.1772 6.15106 20.6675 5.89776L20.6664 5.89721L12.6675 1.89776C12.6673 1.89767 12.6677 1.89786 12.6675 1.89776C12.2473 1.6892 11.7527 1.68919 11.3325 1.89776ZM10.8875 1.00223C11.5883 0.654 12.4117 0.654 13.1125 1.00223L13.1136 1.00278L21.1125 5.00223C21.1127 5.00231 21.1123 5.00215 21.1125 5.00223C21.9618 5.42448 22.4995 6.29123 22.5 7.23973V16.77C22.4995 17.7184 21.9623 18.5852 21.1132 19.0074C21.1129 19.0075 21.1134 19.0073 21.1132 19.0074L13.1137 23.0071C13.1137 23.0072 13.1138 23.0071 13.1137 23.0071C12.4096 23.3594 11.5805 23.3595 10.8764 23.0072C10.8763 23.0072 10.8764 23.0072 10.8764 23.0072L2.87639 19.0072L2.87501 19.0065C2.0268 18.5791 1.49408 17.708 1.5 16.7584V7.24C1.5005 6.29154 2.03767 5.4248 2.8869 5.00253C2.8871 5.00243 2.8867 5.00263 2.8869 5.00253L10.8864 1.00278L10.8875 1.00223Z" fill="white"/>
<path fill-rule="evenodd" clip-rule="evenodd" d="M1.87279 5.9364C1.99628 5.68941 2.29662 5.5893 2.54361 5.71279L12 10.441L21.4564 5.71279C21.7034 5.5893 22.0037 5.68941 22.1272 5.9364C22.2507 6.18339 22.1506 6.48373 21.9036 6.60722L12.2236 11.4472C12.0828 11.5176 11.9172 11.5176 11.7764 11.4472L2.09639 6.60722C1.8494 6.48373 1.74929 6.18339 1.87279 5.9364Z" fill="white"/>
<path fill-rule="evenodd" clip-rule="evenodd" d="M12 10.5C12.2761 10.5 12.5 10.7239 12.5 11V22.76C12.5 23.0361 12.2761 23.26 12 23.26C11.7239 23.26 11.5 23.0361 11.5 22.76V11C11.5 10.7239 11.7239 10.5 12 10.5Z" fill="white"/>
<path fill-rule="evenodd" clip-rule="evenodd" d="M6.55279 3.2764C6.67628 3.02941 6.97662 2.92929 7.22361 3.05279L17.2236 8.05279C17.4706 8.17628 17.5707 8.47662 17.4472 8.72361C17.3237 8.9706 17.0234 9.07071 16.7764 8.94722L6.7764 3.94722C6.52941 3.82372 6.42929 3.52339 6.55279 3.2764Z" fill="white"/>
</svg>
